<svg width="97" height="97" viewBox="0 0 97 97" fill="none" xmlns="http://www.w3.org/2000/svg">
<circle cx="48.5965" cy="48.5" r="30.5968" stroke="url(#paint0_linear_289_34)" stroke-width="8"/>
<circle cx="48.4998" cy="48.5" r="43" stroke="url(#paint1_linear_289_34)" stroke-width="11"/>
<path d="M5.73048 49.0005C5.16778 39.2815 8.5794 30.111 14.1794 23.0873" stroke="#4D55BC" stroke-width="11" stroke-linecap="round"/>
<path d="M38.4938 29.727V33.696C38.4938 34.254 38.6288 34.668 38.8988 34.938C39.1748 35.208 39.5558 35.343 40.0418 35.343C40.5218 35.343 40.8968 35.208 41.1668 34.938C41.4428 34.668 41.5808 34.254 41.5808 33.696V29.727H42.3998V33.687C42.3998 34.209 42.2948 34.65 42.0848 35.01C41.8748 35.364 41.5898 35.628 41.2298 35.802C40.8758 35.976 40.4768 36.063 40.0328 36.063C39.5888 36.063 39.1868 35.976 38.8268 35.802C38.4728 35.628 38.1908 35.364 37.9808 35.01C37.7768 34.65 37.6748 34.209 37.6748 33.687V29.727H38.4938ZM44.585 31.977C44.747 31.695 44.987 31.461 45.305 31.275C45.629 31.083 46.004 30.987 46.43 30.987C46.868 30.987 47.264 31.092 47.618 31.302C47.978 31.512 48.26 31.809 48.464 32.193C48.668 32.571 48.77 33.012 48.77 33.516C48.77 34.014 48.668 34.458 48.464 34.848C48.26 35.238 47.978 35.541 47.618 35.757C47.264 35.973 46.868 36.081 46.43 36.081C46.01 36.081 45.638 35.988 45.314 35.802C44.996 35.61 44.753 35.373 44.585 35.091V38.34H43.766V31.068H44.585V31.977ZM47.933 33.516C47.933 33.144 47.858 32.82 47.708 32.544C47.558 32.268 47.354 32.058 47.096 31.914C46.844 31.77 46.565 31.698 46.259 31.698C45.959 31.698 45.68 31.773 45.422 31.923C45.17 32.067 44.966 32.28 44.81 32.562C44.66 32.838 44.585 33.159 44.585 33.525C44.585 33.897 44.66 34.224 44.81 34.506C44.966 34.782 45.17 34.995 45.422 35.145C45.68 35.289 45.959 35.361 46.259 35.361C46.565 35.361 46.844 35.289 47.096 35.145C47.354 34.995 47.558 34.782 47.708 34.506C47.858 34.224 47.933 33.894 47.933 33.516ZM53.2464 31.743V34.65C53.2464 34.89 53.2974 35.061 53.3994 35.163C53.5014 35.259 53.6784 35.307 53.9304 35.307H54.5334V36H53.7954C53.3394 36 52.9974 35.895 52.7694 35.685C52.5414 35.475 52.4274 35.13 52.4274 34.65V31.743H51.7884V31.068H52.4274V29.826H53.2464V31.068H54.5334V31.743H53.2464ZM57.6768 36.081C57.2148 36.081 56.7948 35.976 56.4168 35.766C56.0448 35.556 55.7508 35.259 55.5348 34.875C55.3248 34.485 55.2198 34.035 55.2198 33.525C55.2198 33.021 55.3278 32.577 55.5438 32.193C55.7658 31.803 56.0658 31.506 56.4438 31.302C56.8218 31.092 57.2448 30.987 57.7128 30.987C58.1808 30.987 58.6038 31.092 58.9818 31.302C59.3598 31.506 59.6568 31.8 59.8728 32.184C60.0948 32.568 60.2058 33.015 60.2058 33.525C60.2058 34.035 60.0918 34.485 59.8638 34.875C59.6418 35.259 59.3388 35.556 58.9548 35.766C58.5708 35.976 58.1448 36.081 57.6768 36.081ZM57.6768 35.361C57.9708 35.361 58.2468 35.292 58.5048 35.154C58.7628 35.016 58.9698 34.809 59.1258 34.533C59.2878 34.257 59.3688 33.921 59.3688 33.525C59.3688 33.129 59.2908 32.793 59.1348 32.517C58.9788 32.241 58.7748 32.037 58.5228 31.905C58.2708 31.767 57.9978 31.698 57.7038 31.698C57.4038 31.698 57.1278 31.767 56.8758 31.905C56.6298 32.037 56.4318 32.241 56.2818 32.517C56.1318 32.793 56.0568 33.129 56.0568 33.525C56.0568 33.927 56.1288 34.266 56.2728 34.542C56.4228 34.818 56.6208 35.025 56.8668 35.163C57.1128 35.295 57.3828 35.361 57.6768 35.361Z" fill="#53589D"/>
<path d="M38.7691 46.154V42.842H44.3131V56H40.6231V46.154H38.7691ZM46.108 49.232C46.108 47.168 46.528 45.542 47.368 44.354C48.208 43.166 49.528 42.572 51.328 42.572C53.128 42.572 54.448 43.166 55.288 44.354C56.14 45.542 56.566 47.168 56.566 49.232C56.566 51.32 56.146 52.958 55.306 54.146C54.466 55.334 53.14 55.928 51.328 55.928C49.516 55.928 48.19 55.334 47.35 54.146C46.522 52.958 46.108 51.32 46.108 49.232ZM53.074 49.232C53.074 48.152 52.96 47.33 52.732 46.766C52.504 46.19 52.036 45.902 51.328 45.902C50.62 45.902 50.152 46.19 49.924 46.766C49.696 47.33 49.582 48.152 49.582 49.232C49.582 50.336 49.69 51.176 49.906 51.752C50.134 52.316 50.608 52.598 51.328 52.598C52.048 52.598 52.516 52.316 52.732 51.752C52.96 51.176 53.074 50.336 53.074 49.232Z" fill="#53589D"/>
<path d="M43.0558 60.772V67H42.2368V62.356L40.1668 67H39.5908L37.5118 62.347V67H36.6928V60.772H37.5748L39.8788 65.92L42.1828 60.772H43.0558ZM45.2637 62.986C45.4317 62.692 45.6777 62.452 46.0017 62.266C46.3257 62.08 46.6947 61.987 47.1087 61.987C47.5527 61.987 47.9517 62.092 48.3057 62.302C48.6597 62.512 48.9387 62.809 49.1427 63.193C49.3467 63.571 49.4487 64.012 49.4487 64.516C49.4487 65.014 49.3467 65.458 49.1427 65.848C48.9387 66.238 48.6567 66.541 48.2967 66.757C47.9427 66.973 47.5467 67.081 47.1087 67.081C46.6827 67.081 46.3077 66.988 45.9837 66.802C45.6657 66.616 45.4257 66.379 45.2637 66.091V67H44.4447V60.34H45.2637V62.986ZM48.6117 64.516C48.6117 64.144 48.5367 63.82 48.3867 63.544C48.2367 63.268 48.0327 63.058 47.7747 62.914C47.5227 62.77 47.2437 62.698 46.9377 62.698C46.6377 62.698 46.3587 62.773 46.1007 62.923C45.8487 63.067 45.6447 63.28 45.4887 63.562C45.3387 63.838 45.2637 64.159 45.2637 64.525C45.2637 64.897 45.3387 65.224 45.4887 65.506C45.6447 65.782 45.8487 65.995 46.1007 66.145C46.3587 66.289 46.6377 66.361 46.9377 66.361C47.2437 66.361 47.5227 66.289 47.7747 66.145C48.0327 65.995 48.2367 65.782 48.3867 65.506C48.5367 65.224 48.6117 64.894 48.6117 64.516ZM51.3457 62.977C51.5077 62.695 51.7477 62.461 52.0657 62.275C52.3897 62.083 52.7647 61.987 53.1907 61.987C53.6287 61.987 54.0247 62.092 54.3787 62.302C54.7387 62.512 55.0207 62.809 55.2247 63.193C55.4287 63.571 55.5307 64.012 55.5307 64.516C55.5307 65.014 55.4287 65.458 55.2247 65.848C55.0207 66.238 54.7387 66.541 54.3787 66.757C54.0247 66.973 53.6287 67.081 53.1907 67.081C52.7707 67.081 52.3987 66.988 52.0747 66.802C51.7567 66.61 51.5137 66.373 51.3457 66.091V69.34H50.5267V62.068H51.3457V62.977ZM54.6937 64.516C54.6937 64.144 54.6187 63.82 54.4687 63.544C54.3187 63.268 54.1147 63.058 53.8567 62.914C53.6047 62.77 53.3257 62.698 53.0197 62.698C52.7197 62.698 52.4407 62.773 52.1827 62.923C51.9307 63.067 51.7267 63.28 51.5707 63.562C51.4207 63.838 51.3457 64.159 51.3457 64.525C51.3457 64.897 51.4207 65.224 51.5707 65.506C51.7267 65.782 51.9307 65.995 52.1827 66.145C52.4407 66.289 52.7197 66.361 53.0197 66.361C53.3257 66.361 53.6047 66.289 53.8567 66.145C54.1147 65.995 54.3187 65.782 54.4687 65.506C54.6187 65.224 54.6937 64.894 54.6937 64.516ZM58.3548 67.081C57.9768 67.081 57.6378 67.018 57.3378 66.892C57.0378 66.76 56.8008 66.58 56.6268 66.352C56.4528 66.118 56.3568 65.851 56.3388 65.551H57.1848C57.2088 65.797 57.3228 65.998 57.5268 66.154C57.7368 66.31 58.0098 66.388 58.3458 66.388C58.6578 66.388 58.9038 66.319 59.0838 66.181C59.2638 66.043 59.3538 65.869 59.3538 65.659C59.3538 65.443 59.2578 65.284 59.0658 65.182C58.8738 65.074 58.5768 64.969 58.1748 64.867C57.8088 64.771 57.5088 64.675 57.2748 64.579C57.0468 64.477 56.8488 64.33 56.6808 64.138C56.5188 63.94 56.4378 63.682 56.4378 63.364C56.4378 63.112 56.5128 62.881 56.6628 62.671C56.8128 62.461 57.0258 62.296 57.3018 62.176C57.5778 62.05 57.8928 61.987 58.2468 61.987C58.7928 61.987 59.2338 62.125 59.5698 62.401C59.9058 62.677 60.0858 63.055 60.1098 63.535H59.2908C59.2728 63.277 59.1678 63.07 58.9758 62.914C58.7898 62.758 58.5378 62.68 58.2198 62.68C57.9258 62.68 57.6918 62.743 57.5178 62.869C57.3438 62.995 57.2568 63.16 57.2568 63.364C57.2568 63.526 57.3078 63.661 57.4098 63.769C57.5178 63.871 57.6498 63.955 57.8058 64.021C57.9678 64.081 58.1898 64.15 58.4718 64.228C58.8258 64.324 59.1138 64.42 59.3358 64.516C59.5578 64.606 59.7468 64.744 59.9028 64.93C60.0648 65.116 60.1488 65.359 60.1548 65.659C60.1548 65.929 60.0798 66.172 59.9298 66.388C59.7798 66.604 59.5668 66.775 59.2908 66.901C59.0208 67.021 58.7088 67.081 58.3548 67.081Z" fill="#53589D"/>
<defs>
<linearGradient id="paint0_linear_289_34" x1="-41.8873" y1="99.0645" x2="103.032" y2="32.2903" gradientUnits="userSpaceOnUse">
<stop stop-color="#4D55BC"/>
<stop offset="1" stop-color="#4D55BC" stop-opacity="0"/>
</linearGradient>
<linearGradient id="paint1_linear_289_34" x1="-49.5772" y1="103.308" x2="107.503" y2="30.9301" gradientUnits="userSpaceOnUse">
<stop stop-color="#4D55BC"/>
<stop offset="1" stop-color="#4D55BC" stop-opacity="0"/>
</linearGradient>
</defs>
</svg>
