<svg width="98" height="97" viewBox="0 0 98 97" fill="none" xmlns="http://www.w3.org/2000/svg">
<circle cx="49.3336" cy="48.5" r="30.5968" stroke="url(#paint0_linear_294_36)" stroke-width="8"/>
<circle cx="49.2368" cy="48.5" r="43" stroke="url(#paint1_linear_294_36)" stroke-width="11"/>
<path d="M6.46747 49.0005C4.49996 37 13.9999 19 25.4999 12.5" stroke="#4D55BC" stroke-width="11" stroke-linecap="round"/>
<path d="M39.2308 29.727V33.696C39.2308 34.254 39.3658 34.668 39.6358 34.938C39.9118 35.208 40.2928 35.343 40.7788 35.343C41.2588 35.343 41.6338 35.208 41.9038 34.938C42.1798 34.668 42.3178 34.254 42.3178 33.696V29.727H43.1368V33.687C43.1368 34.209 43.0318 34.65 42.8218 35.01C42.6118 35.364 42.3268 35.628 41.9668 35.802C41.6128 35.976 41.2138 36.063 40.7698 36.063C40.3258 36.063 39.9238 35.976 39.5638 35.802C39.2098 35.628 38.9278 35.364 38.7178 35.01C38.5138 34.65 38.4118 34.209 38.4118 33.687V29.727H39.2308ZM45.3221 31.977C45.4841 31.695 45.7241 31.461 46.0421 31.275C46.3661 31.083 46.7411 30.987 47.1671 30.987C47.6051 30.987 48.0011 31.092 48.3551 31.302C48.7151 31.512 48.9971 31.809 49.2011 32.193C49.4051 32.571 49.5071 33.012 49.5071 33.516C49.5071 34.014 49.4051 34.458 49.2011 34.848C48.9971 35.238 48.7151 35.541 48.3551 35.757C48.0011 35.973 47.6051 36.081 47.1671 36.081C46.7471 36.081 46.3751 35.988 46.0511 35.802C45.7331 35.61 45.4901 35.373 45.3221 35.091V38.34H44.5031V31.068H45.3221V31.977ZM48.6701 33.516C48.6701 33.144 48.5951 32.82 48.4451 32.544C48.2951 32.268 48.0911 32.058 47.8331 31.914C47.5811 31.77 47.3021 31.698 46.9961 31.698C46.6961 31.698 46.4171 31.773 46.1591 31.923C45.9071 32.067 45.7031 32.28 45.5471 32.562C45.3971 32.838 45.3221 33.159 45.3221 33.525C45.3221 33.897 45.3971 34.224 45.5471 34.506C45.7031 34.782 45.9071 34.995 46.1591 35.145C46.4171 35.289 46.6961 35.361 46.9961 35.361C47.3021 35.361 47.5811 35.289 47.8331 35.145C48.0911 34.995 48.2951 34.782 48.4451 34.506C48.5951 34.224 48.6701 33.894 48.6701 33.516ZM53.9835 31.743V34.65C53.9835 34.89 54.0345 35.061 54.1365 35.163C54.2385 35.259 54.4155 35.307 54.6675 35.307H55.2705V36H54.5325C54.0765 36 53.7345 35.895 53.5065 35.685C53.2785 35.475 53.1645 35.13 53.1645 34.65V31.743H52.5255V31.068H53.1645V29.826H53.9835V31.068H55.2705V31.743H53.9835ZM58.4138 36.081C57.9518 36.081 57.5318 35.976 57.1538 35.766C56.7818 35.556 56.4878 35.259 56.2718 34.875C56.0618 34.485 55.9568 34.035 55.9568 33.525C55.9568 33.021 56.0648 32.577 56.2808 32.193C56.5028 31.803 56.8028 31.506 57.1808 31.302C57.5588 31.092 57.9818 30.987 58.4498 30.987C58.9178 30.987 59.3408 31.092 59.7188 31.302C60.0968 31.506 60.3938 31.8 60.6098 32.184C60.8318 32.568 60.9428 33.015 60.9428 33.525C60.9428 34.035 60.8288 34.485 60.6008 34.875C60.3788 35.259 60.0758 35.556 59.6918 35.766C59.3078 35.976 58.8818 36.081 58.4138 36.081ZM58.4138 35.361C58.7078 35.361 58.9838 35.292 59.2418 35.154C59.4998 35.016 59.7068 34.809 59.8628 34.533C60.0248 34.257 60.1058 33.921 60.1058 33.525C60.1058 33.129 60.0278 32.793 59.8718 32.517C59.7158 32.241 59.5118 32.037 59.2598 31.905C59.0078 31.767 58.7348 31.698 58.4408 31.698C58.1408 31.698 57.8648 31.767 57.6128 31.905C57.3668 32.037 57.1688 32.241 57.0188 32.517C56.8688 32.793 56.7938 33.129 56.7938 33.525C56.7938 33.927 56.8658 34.266 57.0098 34.542C57.1598 34.818 57.3578 35.025 57.6038 35.163C57.8498 35.295 58.1198 35.361 58.4138 35.361Z" fill="#53589D"/>
<path d="M39.5061 46.154V42.842H45.0501V56H41.3601V46.154H39.5061ZM56.4211 45.956H51.0211V47.954C51.2491 47.714 51.5611 47.522 51.9571 47.378C52.3531 47.234 52.7911 47.162 53.2711 47.162C54.1351 47.162 54.8551 47.36 55.4311 47.756C56.0191 48.152 56.4511 48.674 56.7271 49.322C57.0031 49.97 57.1411 50.678 57.1411 51.446C57.1411 52.862 56.7391 53.978 55.9351 54.794C55.1311 55.598 54.0151 56 52.5871 56C51.5911 56 50.7271 55.832 49.9951 55.496C49.2751 55.148 48.7231 54.668 48.3391 54.056C47.9551 53.444 47.7571 52.742 47.7451 51.95H51.1831C51.2191 52.226 51.3391 52.466 51.5431 52.67C51.7471 52.874 52.0471 52.976 52.4431 52.976C52.8631 52.976 53.1811 52.832 53.3971 52.544C53.6131 52.256 53.7211 51.872 53.7211 51.392C53.7211 50.924 53.6071 50.57 53.3791 50.33C53.1511 50.078 52.8211 49.952 52.3891 49.952C52.0651 49.952 51.8011 50.036 51.5971 50.204C51.4051 50.36 51.2911 50.558 51.2551 50.798H47.8171V42.842H56.4211V45.956Z" fill="#53589D"/>
<path d="M43.7928 60.772V67H42.9738V62.356L40.9038 67H40.3278L38.2488 62.347V67H37.4298V60.772H38.3118L40.6158 65.92L42.9198 60.772H43.7928ZM46.0008 62.986C46.1688 62.692 46.4148 62.452 46.7388 62.266C47.0628 62.08 47.4318 61.987 47.8458 61.987C48.2898 61.987 48.6888 62.092 49.0428 62.302C49.3968 62.512 49.6758 62.809 49.8798 63.193C50.0838 63.571 50.1858 64.012 50.1858 64.516C50.1858 65.014 50.0838 65.458 49.8798 65.848C49.6758 66.238 49.3938 66.541 49.0338 66.757C48.6798 66.973 48.2838 67.081 47.8458 67.081C47.4198 67.081 47.0448 66.988 46.7208 66.802C46.4028 66.616 46.1628 66.379 46.0008 66.091V67H45.1818V60.34H46.0008V62.986ZM49.3488 64.516C49.3488 64.144 49.2738 63.82 49.1238 63.544C48.9738 63.268 48.7698 63.058 48.5118 62.914C48.2598 62.77 47.9808 62.698 47.6748 62.698C47.3748 62.698 47.0958 62.773 46.8378 62.923C46.5858 63.067 46.3818 63.28 46.2258 63.562C46.0758 63.838 46.0008 64.159 46.0008 64.525C46.0008 64.897 46.0758 65.224 46.2258 65.506C46.3818 65.782 46.5858 65.995 46.8378 66.145C47.0958 66.289 47.3748 66.361 47.6748 66.361C47.9808 66.361 48.2598 66.289 48.5118 66.145C48.7698 65.995 48.9738 65.782 49.1238 65.506C49.2738 65.224 49.3488 64.894 49.3488 64.516ZM52.0828 62.977C52.2448 62.695 52.4848 62.461 52.8028 62.275C53.1268 62.083 53.5018 61.987 53.9278 61.987C54.3658 61.987 54.7618 62.092 55.1158 62.302C55.4758 62.512 55.7578 62.809 55.9618 63.193C56.1658 63.571 56.2678 64.012 56.2678 64.516C56.2678 65.014 56.1658 65.458 55.9618 65.848C55.7578 66.238 55.4758 66.541 55.1158 66.757C54.7618 66.973 54.3658 67.081 53.9278 67.081C53.5078 67.081 53.1358 66.988 52.8118 66.802C52.4938 66.61 52.2508 66.373 52.0828 66.091V69.34H51.2638V62.068H52.0828V62.977ZM55.4308 64.516C55.4308 64.144 55.3558 63.82 55.2058 63.544C55.0558 63.268 54.8518 63.058 54.5938 62.914C54.3418 62.77 54.0628 62.698 53.7568 62.698C53.4568 62.698 53.1778 62.773 52.9198 62.923C52.6678 63.067 52.4638 63.28 52.3078 63.562C52.1578 63.838 52.0828 64.159 52.0828 64.525C52.0828 64.897 52.1578 65.224 52.3078 65.506C52.4638 65.782 52.6678 65.995 52.9198 66.145C53.1778 66.289 53.4568 66.361 53.7568 66.361C54.0628 66.361 54.3418 66.289 54.5938 66.145C54.8518 65.995 55.0558 65.782 55.2058 65.506C55.3558 65.224 55.4308 64.894 55.4308 64.516ZM59.0918 67.081C58.7138 67.081 58.3748 67.018 58.0748 66.892C57.7748 66.76 57.5378 66.58 57.3638 66.352C57.1898 66.118 57.0938 65.851 57.0758 65.551H57.9218C57.9458 65.797 58.0598 65.998 58.2638 66.154C58.4738 66.31 58.7468 66.388 59.0828 66.388C59.3948 66.388 59.6408 66.319 59.8208 66.181C60.0008 66.043 60.0908 65.869 60.0908 65.659C60.0908 65.443 59.9948 65.284 59.8028 65.182C59.6108 65.074 59.3138 64.969 58.9118 64.867C58.5458 64.771 58.2458 64.675 58.0118 64.579C57.7838 64.477 57.5858 64.33 57.4178 64.138C57.2558 63.94 57.1748 63.682 57.1748 63.364C57.1748 63.112 57.2498 62.881 57.3998 62.671C57.5498 62.461 57.7628 62.296 58.0388 62.176C58.3148 62.05 58.6298 61.987 58.9838 61.987C59.5298 61.987 59.9708 62.125 60.3068 62.401C60.6428 62.677 60.8228 63.055 60.8468 63.535H60.0278C60.0098 63.277 59.9048 63.07 59.7128 62.914C59.5268 62.758 59.2748 62.68 58.9568 62.68C58.6628 62.68 58.4288 62.743 58.2548 62.869C58.0808 62.995 57.9938 63.16 57.9938 63.364C57.9938 63.526 58.0448 63.661 58.1468 63.769C58.2548 63.871 58.3868 63.955 58.5428 64.021C58.7048 64.081 58.9268 64.15 59.2088 64.228C59.5628 64.324 59.8508 64.42 60.0728 64.516C60.2948 64.606 60.4838 64.744 60.6398 64.93C60.8018 65.116 60.8858 65.359 60.8918 65.659C60.8918 65.929 60.8168 66.172 60.6668 66.388C60.5168 66.604 60.3038 66.775 60.0278 66.901C59.7578 67.021 59.4458 67.081 59.0918 67.081Z" fill="#53589D"/>
<defs>
<linearGradient id="paint0_linear_294_36" x1="-41.1503" y1="99.0645" x2="103.769" y2="32.2903" gradientUnits="userSpaceOnUse">
<stop stop-color="#4D55BC"/>
<stop offset="1" stop-color="#4D55BC" stop-opacity="0"/>
</linearGradient>
<linearGradient id="paint1_linear_294_36" x1="-48.8401" y1="103.308" x2="108.24" y2="30.9301" gradientUnits="userSpaceOnUse">
<stop stop-color="#4D55BC"/>
<stop offset="1" stop-color="#4D55BC" stop-opacity="0"/>
</linearGradient>
</defs>
</svg>
