<svg width="98" height="97" viewBox="0 0 98 97" fill="none" xmlns="http://www.w3.org/2000/svg">
<circle cx="49.013" cy="48.5002" r="30.5968" stroke="url(#paint0_linear_294_43)" stroke-width="8"/>
<circle cx="48.9163" cy="48.5002" r="43" stroke="url(#paint1_linear_294_43)" stroke-width="11"/>
<path d="M6.147 49.0007C5.17826 43.092 6.98954 35.7289 10.4508 29.0002C16.1092 18 28 8 40.9998 6.00004" stroke="#4D55BC" stroke-width="11" stroke-linecap="round"/>
<path d="M38.9103 29.7272V33.6962C38.9103 34.2542 39.0453 34.6682 39.3153 34.9382C39.5913 35.2082 39.9723 35.3432 40.4583 35.3432C40.9383 35.3432 41.3133 35.2082 41.5833 34.9382C41.8593 34.6682 41.9973 34.2542 41.9973 33.6962V29.7272H42.8163V33.6872C42.8163 34.2092 42.7113 34.6502 42.5013 35.0102C42.2913 35.3642 42.0063 35.6282 41.6463 35.8022C41.2923 35.9762 40.8933 36.0632 40.4493 36.0632C40.0053 36.0632 39.6033 35.9762 39.2433 35.8022C38.8893 35.6282 38.6073 35.3642 38.3973 35.0102C38.1933 34.6502 38.0913 34.2092 38.0913 33.6872V29.7272H38.9103ZM45.0015 31.9772C45.1635 31.6952 45.4035 31.4612 45.7215 31.2752C46.0455 31.0832 46.4205 30.9872 46.8465 30.9872C47.2845 30.9872 47.6805 31.0922 48.0345 31.3022C48.3945 31.5122 48.6765 31.8092 48.8805 32.1932C49.0845 32.5712 49.1865 33.0122 49.1865 33.5162C49.1865 34.0142 49.0845 34.4582 48.8805 34.8482C48.6765 35.2382 48.3945 35.5412 48.0345 35.7572C47.6805 35.9732 47.2845 36.0812 46.8465 36.0812C46.4265 36.0812 46.0545 35.9882 45.7305 35.8022C45.4125 35.6102 45.1695 35.3732 45.0015 35.0912V38.3402H44.1825V31.0682H45.0015V31.9772ZM48.3495 33.5162C48.3495 33.1442 48.2745 32.8202 48.1245 32.5442C47.9745 32.2682 47.7705 32.0582 47.5125 31.9142C47.2605 31.7702 46.9815 31.6982 46.6755 31.6982C46.3755 31.6982 46.0965 31.7732 45.8385 31.9232C45.5865 32.0672 45.3825 32.2802 45.2265 32.5622C45.0765 32.8382 45.0015 33.1592 45.0015 33.5252C45.0015 33.8972 45.0765 34.2242 45.2265 34.5062C45.3825 34.7822 45.5865 34.9952 45.8385 35.1452C46.0965 35.2892 46.3755 35.3612 46.6755 35.3612C46.9815 35.3612 47.2605 35.2892 47.5125 35.1452C47.7705 34.9952 47.9745 34.7822 48.1245 34.5062C48.2745 34.2242 48.3495 33.8942 48.3495 33.5162ZM53.6629 31.7432V34.6502C53.6629 34.8902 53.7139 35.0612 53.8159 35.1632C53.9179 35.2592 54.0949 35.3072 54.3469 35.3072H54.9499V36.0002H54.2119C53.7559 36.0002 53.4139 35.8952 53.1859 35.6852C52.9579 35.4752 52.8439 35.1302 52.8439 34.6502V31.7432H52.2049V31.0682H52.8439V29.8262H53.6629V31.0682H54.9499V31.7432H53.6629ZM58.0933 36.0812C57.6313 36.0812 57.2113 35.9762 56.8333 35.7662C56.4613 35.5562 56.1673 35.2592 55.9513 34.8752C55.7413 34.4852 55.6363 34.0352 55.6363 33.5252C55.6363 33.0212 55.7443 32.5772 55.9603 32.1932C56.1823 31.8032 56.4823 31.5062 56.8603 31.3022C57.2383 31.0922 57.6613 30.9872 58.1293 30.9872C58.5973 30.9872 59.0203 31.0922 59.3983 31.3022C59.7763 31.5062 60.0733 31.8002 60.2893 32.1842C60.5113 32.5682 60.6223 33.0152 60.6223 33.5252C60.6223 34.0352 60.5083 34.4852 60.2803 34.8752C60.0583 35.2592 59.7553 35.5562 59.3713 35.7662C58.9873 35.9762 58.5613 36.0812 58.0933 36.0812ZM58.0933 35.3612C58.3873 35.3612 58.6633 35.2922 58.9213 35.1542C59.1793 35.0162 59.3863 34.8092 59.5423 34.5332C59.7043 34.2572 59.7853 33.9212 59.7853 33.5252C59.7853 33.1292 59.7073 32.7932 59.5513 32.5172C59.3953 32.2412 59.1913 32.0372 58.9393 31.9052C58.6873 31.7672 58.4143 31.6982 58.1203 31.6982C57.8203 31.6982 57.5443 31.7672 57.2923 31.9052C57.0463 32.0372 56.8483 32.2412 56.6983 32.5172C56.5483 32.7932 56.4733 33.1292 56.4733 33.5252C56.4733 33.9272 56.5453 34.2662 56.6893 34.5422C56.8393 34.8182 57.0373 35.0252 57.2833 35.1632C57.5293 35.2952 57.7993 35.3612 58.0933 35.3612Z" fill="#53589D"/>
<path d="M38.5942 53.1742C39.7582 52.2622 40.7122 51.4762 41.4562 50.8162C42.2002 50.1562 42.8242 49.4782 43.3282 48.7822C43.8322 48.0742 44.0842 47.4022 44.0842 46.7662C44.0842 46.3822 43.9942 46.0822 43.8142 45.8662C43.6462 45.6502 43.3942 45.5422 43.0582 45.5422C42.7102 45.5422 42.4402 45.6922 42.2482 45.9922C42.0562 46.2802 41.9662 46.7062 41.9782 47.2702H38.5582C38.5942 46.2022 38.8282 45.3202 39.2602 44.6242C39.6922 43.9162 40.2562 43.4002 40.9522 43.0762C41.6482 42.7402 42.4222 42.5722 43.2742 42.5722C44.7502 42.5722 45.8482 42.9382 46.5682 43.6702C47.2882 44.4022 47.6482 45.3502 47.6482 46.5142C47.6482 47.7622 47.2282 48.9322 46.3882 50.0242C45.5602 51.1162 44.5222 52.0942 43.2742 52.9582H47.7742V55.8202H38.5942V53.1742ZM48.9503 49.2322C48.9503 47.1682 49.3703 45.5422 50.2103 44.3542C51.0503 43.1662 52.3703 42.5722 54.1703 42.5722C55.9703 42.5722 57.2903 43.1662 58.1303 44.3542C58.9823 45.5422 59.4083 47.1682 59.4083 49.2322C59.4083 51.3202 58.9883 52.9582 58.1483 54.1462C57.3083 55.3342 55.9823 55.9282 54.1703 55.9282C52.3583 55.9282 51.0323 55.3342 50.1923 54.1462C49.3643 52.9582 48.9503 51.3202 48.9503 49.2322ZM55.9163 49.2322C55.9163 48.1522 55.8023 47.3302 55.5743 46.7662C55.3463 46.1902 54.8783 45.9022 54.1703 45.9022C53.4623 45.9022 52.9943 46.1902 52.7663 46.7662C52.5383 47.3302 52.4243 48.1522 52.4243 49.2322C52.4243 50.3362 52.5323 51.1762 52.7483 51.7522C52.9763 52.3162 53.4503 52.5982 54.1703 52.5982C54.8903 52.5982 55.3583 52.3162 55.5743 51.7522C55.8023 51.1762 55.9163 50.3362 55.9163 49.2322Z" fill="#53589D"/>
<path d="M43.4723 60.7722V67.0002H42.6533V62.3562L40.5833 67.0002H40.0073L37.9283 62.3472V67.0002H37.1093V60.7722H37.9913L40.2953 65.9202L42.5993 60.7722H43.4723ZM45.6802 62.9862C45.8482 62.6922 46.0942 62.4522 46.4182 62.2662C46.7422 62.0802 47.1112 61.9872 47.5252 61.9872C47.9692 61.9872 48.3682 62.0922 48.7222 62.3022C49.0762 62.5122 49.3552 62.8092 49.5592 63.1932C49.7632 63.5712 49.8652 64.0122 49.8652 64.5162C49.8652 65.0142 49.7632 65.4582 49.5592 65.8482C49.3552 66.2382 49.0732 66.5412 48.7132 66.7572C48.3592 66.9732 47.9632 67.0812 47.5252 67.0812C47.0992 67.0812 46.7242 66.9882 46.4002 66.8022C46.0822 66.6162 45.8422 66.3792 45.6802 66.0912V67.0002H44.8612V60.3402H45.6802V62.9862ZM49.0282 64.5162C49.0282 64.1442 48.9532 63.8202 48.8032 63.5442C48.6532 63.2682 48.4492 63.0582 48.1912 62.9142C47.9392 62.7702 47.6602 62.6982 47.3542 62.6982C47.0542 62.6982 46.7752 62.7732 46.5172 62.9232C46.2652 63.0672 46.0612 63.2802 45.9052 63.5622C45.7552 63.8382 45.6802 64.1592 45.6802 64.5252C45.6802 64.8972 45.7552 65.2242 45.9052 65.5062C46.0612 65.7822 46.2652 65.9952 46.5172 66.1452C46.7752 66.2892 47.0542 66.3612 47.3542 66.3612C47.6602 66.3612 47.9392 66.2892 48.1912 66.1452C48.4492 65.9952 48.6532 65.7822 48.8032 65.5062C48.9532 65.2242 49.0282 64.8942 49.0282 64.5162ZM51.7622 62.9772C51.9242 62.6952 52.1642 62.4612 52.4822 62.2752C52.8062 62.0832 53.1812 61.9872 53.6072 61.9872C54.0452 61.9872 54.4412 62.0922 54.7952 62.3022C55.1552 62.5122 55.4372 62.8092 55.6412 63.1932C55.8452 63.5712 55.9472 64.0122 55.9472 64.5162C55.9472 65.0142 55.8452 65.4582 55.6412 65.8482C55.4372 66.2382 55.1552 66.5412 54.7952 66.7572C54.4412 66.9732 54.0452 67.0812 53.6072 67.0812C53.1872 67.0812 52.8152 66.9882 52.4912 66.8022C52.1732 66.6102 51.9302 66.3732 51.7622 66.0912V69.3402H50.9432V62.0682H51.7622V62.9772ZM55.1102 64.5162C55.1102 64.1442 55.0352 63.8202 54.8852 63.5442C54.7352 63.2682 54.5312 63.0582 54.2732 62.9142C54.0212 62.7702 53.7422 62.6982 53.4362 62.6982C53.1362 62.6982 52.8572 62.7732 52.5992 62.9232C52.3472 63.0672 52.1432 63.2802 51.9872 63.5622C51.8372 63.8382 51.7622 64.1592 51.7622 64.5252C51.7622 64.8972 51.8372 65.2242 51.9872 65.5062C52.1432 65.7822 52.3472 65.9952 52.5992 66.1452C52.8572 66.2892 53.1362 66.3612 53.4362 66.3612C53.7422 66.3612 54.0212 66.2892 54.2732 66.1452C54.5312 65.9952 54.7352 65.7822 54.8852 65.5062C55.0352 65.2242 55.1102 64.8942 55.1102 64.5162ZM58.7713 67.0812C58.3933 67.0812 58.0543 67.0182 57.7543 66.8922C57.4543 66.7602 57.2173 66.5802 57.0433 66.3522C56.8693 66.1182 56.7733 65.8512 56.7553 65.5512H57.6013C57.6253 65.7972 57.7393 65.9982 57.9433 66.1542C58.1533 66.3102 58.4263 66.3882 58.7623 66.3882C59.0743 66.3882 59.3203 66.3192 59.5003 66.1812C59.6803 66.0432 59.7703 65.8692 59.7703 65.6592C59.7703 65.4432 59.6743 65.2842 59.4823 65.1822C59.2903 65.0742 58.9933 64.9692 58.5913 64.8672C58.2253 64.7712 57.9253 64.6752 57.6913 64.5792C57.4633 64.4772 57.2653 64.3302 57.0973 64.1382C56.9353 63.9402 56.8543 63.6822 56.8543 63.3642C56.8543 63.1122 56.9293 62.8812 57.0793 62.6712C57.2293 62.4612 57.4423 62.2962 57.7183 62.1762C57.9943 62.0502 58.3093 61.9872 58.6633 61.9872C59.2093 61.9872 59.6503 62.1252 59.9863 62.4012C60.3223 62.6772 60.5023 63.0552 60.5263 63.5352H59.7073C59.6893 63.2772 59.5843 63.0702 59.3923 62.9142C59.2063 62.7582 58.9543 62.6802 58.6363 62.6802C58.3423 62.6802 58.1083 62.7432 57.9343 62.8692C57.7603 62.9952 57.6733 63.1602 57.6733 63.3642C57.6733 63.5262 57.7243 63.6612 57.8263 63.7692C57.9343 63.8712 58.0663 63.9552 58.2223 64.0212C58.3843 64.0812 58.6063 64.1502 58.8883 64.2282C59.2423 64.3242 59.5303 64.4202 59.7523 64.5162C59.9743 64.6062 60.1633 64.7442 60.3193 64.9302C60.4813 65.1162 60.5653 65.3592 60.5713 65.6592C60.5713 65.9292 60.4963 66.1722 60.3463 66.3882C60.1963 66.6042 59.9833 66.7752 59.7073 66.9012C59.4373 67.0212 59.1253 67.0812 58.7713 67.0812Z" fill="#53589D"/>
<defs>
<linearGradient id="paint0_linear_294_43" x1="-41.4708" y1="99.0647" x2="103.449" y2="32.2905" gradientUnits="userSpaceOnUse">
<stop stop-color="#4D55BC"/>
<stop offset="1" stop-color="#4D55BC" stop-opacity="0"/>
</linearGradient>
<linearGradient id="paint1_linear_294_43" x1="-49.1607" y1="103.308" x2="107.92" y2="30.9302" gradientUnits="userSpaceOnUse">
<stop stop-color="#4D55BC"/>
<stop offset="1" stop-color="#4D55BC" stop-opacity="0"/>
</linearGradient>
</defs>
</svg>
