<svg width="98" height="98" viewBox="0 0 98 98" fill="none" xmlns="http://www.w3.org/2000/svg">
<circle cx="49.0134" cy="49.5" r="30.5968" stroke="url(#paint0_linear_294_57)" stroke-width="8"/>
<circle cx="48.9166" cy="49.5" r="43" stroke="url(#paint1_linear_294_57)" stroke-width="11"/>
<path d="M6.14725 50.0005C4.95655 42.7381 7.96572 33.2784 13.0764 25.5C16.4106 20.4253 33 3 54 7" stroke="#4D55BC" stroke-width="11" stroke-linecap="round"/>
<path d="M38.9105 30.727V34.696C38.9105 35.254 39.0455 35.668 39.3155 35.938C39.5915 36.208 39.9725 36.343 40.4585 36.343C40.9385 36.343 41.3135 36.208 41.5835 35.938C41.8595 35.668 41.9975 35.254 41.9975 34.696V30.727H42.8165V34.687C42.8165 35.209 42.7115 35.65 42.5015 36.01C42.2915 36.364 42.0065 36.628 41.6465 36.802C41.2925 36.976 40.8935 37.063 40.4495 37.063C40.0055 37.063 39.6035 36.976 39.2435 36.802C38.8895 36.628 38.6075 36.364 38.3975 36.01C38.1935 35.65 38.0915 35.209 38.0915 34.687V30.727H38.9105ZM45.0017 32.977C45.1637 32.695 45.4037 32.461 45.7217 32.275C46.0457 32.083 46.4207 31.987 46.8467 31.987C47.2847 31.987 47.6807 32.092 48.0347 32.302C48.3947 32.512 48.6767 32.809 48.8807 33.193C49.0847 33.571 49.1867 34.012 49.1867 34.516C49.1867 35.014 49.0847 35.458 48.8807 35.848C48.6767 36.238 48.3947 36.541 48.0347 36.757C47.6807 36.973 47.2847 37.081 46.8467 37.081C46.4267 37.081 46.0547 36.988 45.7307 36.802C45.4127 36.61 45.1697 36.373 45.0017 36.091V39.34H44.1827V32.068H45.0017V32.977ZM48.3497 34.516C48.3497 34.144 48.2747 33.82 48.1247 33.544C47.9747 33.268 47.7707 33.058 47.5127 32.914C47.2607 32.77 46.9817 32.698 46.6757 32.698C46.3757 32.698 46.0967 32.773 45.8387 32.923C45.5867 33.067 45.3827 33.28 45.2267 33.562C45.0767 33.838 45.0017 34.159 45.0017 34.525C45.0017 34.897 45.0767 35.224 45.2267 35.506C45.3827 35.782 45.5867 35.995 45.8387 36.145C46.0967 36.289 46.3757 36.361 46.6757 36.361C46.9817 36.361 47.2607 36.289 47.5127 36.145C47.7707 35.995 47.9747 35.782 48.1247 35.506C48.2747 35.224 48.3497 34.894 48.3497 34.516ZM53.6632 32.743V35.65C53.6632 35.89 53.7142 36.061 53.8162 36.163C53.9182 36.259 54.0952 36.307 54.3472 36.307H54.9502V37H54.2122C53.7562 37 53.4142 36.895 53.1862 36.685C52.9582 36.475 52.8442 36.13 52.8442 35.65V32.743H52.2052V32.068H52.8442V30.826H53.6632V32.068H54.9502V32.743H53.6632ZM58.0935 37.081C57.6315 37.081 57.2115 36.976 56.8335 36.766C56.4615 36.556 56.1675 36.259 55.9515 35.875C55.7415 35.485 55.6365 35.035 55.6365 34.525C55.6365 34.021 55.7445 33.577 55.9605 33.193C56.1825 32.803 56.4825 32.506 56.8605 32.302C57.2385 32.092 57.6615 31.987 58.1295 31.987C58.5975 31.987 59.0205 32.092 59.3985 32.302C59.7765 32.506 60.0735 32.8 60.2895 33.184C60.5115 33.568 60.6225 34.015 60.6225 34.525C60.6225 35.035 60.5085 35.485 60.2805 35.875C60.0585 36.259 59.7555 36.556 59.3715 36.766C58.9875 36.976 58.5615 37.081 58.0935 37.081ZM58.0935 36.361C58.3875 36.361 58.6635 36.292 58.9215 36.154C59.1795 36.016 59.3865 35.809 59.5425 35.533C59.7045 35.257 59.7855 34.921 59.7855 34.525C59.7855 34.129 59.7075 33.793 59.5515 33.517C59.3955 33.241 59.1915 33.037 58.9395 32.905C58.6875 32.767 58.4145 32.698 58.1205 32.698C57.8205 32.698 57.5445 32.767 57.2925 32.905C57.0465 33.037 56.8485 33.241 56.6985 33.517C56.5485 33.793 56.4735 34.129 56.4735 34.525C56.4735 34.927 56.5455 35.266 56.6895 35.542C56.8395 35.818 57.0375 36.025 57.2835 36.163C57.5295 36.295 57.7995 36.361 58.0935 36.361Z" fill="#53589D"/>
<path d="M39.0106 54.174C40.1746 53.262 41.1286 52.476 41.8726 51.816C42.6166 51.156 43.2406 50.478 43.7446 49.782C44.2486 49.074 44.5006 48.402 44.5006 47.766C44.5006 47.382 44.4106 47.082 44.2306 46.866C44.0626 46.65 43.8106 46.542 43.4746 46.542C43.1266 46.542 42.8566 46.692 42.6646 46.992C42.4726 47.28 42.3826 47.706 42.3946 48.27H38.9746C39.0106 47.202 39.2446 46.32 39.6766 45.624C40.1086 44.916 40.6726 44.4 41.3686 44.076C42.0646 43.74 42.8386 43.572 43.6906 43.572C45.1666 43.572 46.2646 43.938 46.9846 44.67C47.7046 45.402 48.0646 46.35 48.0646 47.514C48.0646 48.762 47.6446 49.932 46.8046 51.024C45.9766 52.116 44.9386 53.094 43.6906 53.958H48.1906V56.82H39.0106V54.174ZM58.9427 46.956H53.5427V48.954C53.7707 48.714 54.0827 48.522 54.4787 48.378C54.8747 48.234 55.3127 48.162 55.7927 48.162C56.6567 48.162 57.3767 48.36 57.9527 48.756C58.5407 49.152 58.9727 49.674 59.2487 50.322C59.5247 50.97 59.6627 51.678 59.6627 52.446C59.6627 53.862 59.2607 54.978 58.4567 55.794C57.6527 56.598 56.5367 57 55.1087 57C54.1127 57 53.2487 56.832 52.5167 56.496C51.7967 56.148 51.2447 55.668 50.8607 55.056C50.4767 54.444 50.2787 53.742 50.2667 52.95H53.7047C53.7407 53.226 53.8607 53.466 54.0647 53.67C54.2687 53.874 54.5687 53.976 54.9647 53.976C55.3847 53.976 55.7027 53.832 55.9187 53.544C56.1347 53.256 56.2427 52.872 56.2427 52.392C56.2427 51.924 56.1287 51.57 55.9007 51.33C55.6727 51.078 55.3427 50.952 54.9107 50.952C54.5867 50.952 54.3227 51.036 54.1187 51.204C53.9267 51.36 53.8127 51.558 53.7767 51.798H50.3387V43.842H58.9427V46.956Z" fill="#53589D"/>
<path d="M43.4725 61.772V68H42.6535V63.356L40.5835 68H40.0075L37.9285 63.347V68H37.1095V61.772H37.9915L40.2955 66.92L42.5995 61.772H43.4725ZM45.6805 63.986C45.8485 63.692 46.0945 63.452 46.4185 63.266C46.7425 63.08 47.1115 62.987 47.5255 62.987C47.9695 62.987 48.3685 63.092 48.7225 63.302C49.0765 63.512 49.3555 63.809 49.5595 64.193C49.7635 64.571 49.8655 65.012 49.8655 65.516C49.8655 66.014 49.7635 66.458 49.5595 66.848C49.3555 67.238 49.0735 67.541 48.7135 67.757C48.3595 67.973 47.9635 68.081 47.5255 68.081C47.0995 68.081 46.7245 67.988 46.4005 67.802C46.0825 67.616 45.8425 67.379 45.6805 67.091V68H44.8615V61.34H45.6805V63.986ZM49.0285 65.516C49.0285 65.144 48.9535 64.82 48.8035 64.544C48.6535 64.268 48.4495 64.058 48.1915 63.914C47.9395 63.77 47.6605 63.698 47.3545 63.698C47.0545 63.698 46.7755 63.773 46.5175 63.923C46.2655 64.067 46.0615 64.28 45.9055 64.562C45.7555 64.838 45.6805 65.159 45.6805 65.525C45.6805 65.897 45.7555 66.224 45.9055 66.506C46.0615 66.782 46.2655 66.995 46.5175 67.145C46.7755 67.289 47.0545 67.361 47.3545 67.361C47.6605 67.361 47.9395 67.289 48.1915 67.145C48.4495 66.995 48.6535 66.782 48.8035 66.506C48.9535 66.224 49.0285 65.894 49.0285 65.516ZM51.7625 63.977C51.9245 63.695 52.1645 63.461 52.4825 63.275C52.8065 63.083 53.1815 62.987 53.6075 62.987C54.0455 62.987 54.4415 63.092 54.7955 63.302C55.1555 63.512 55.4375 63.809 55.6415 64.193C55.8455 64.571 55.9475 65.012 55.9475 65.516C55.9475 66.014 55.8455 66.458 55.6415 66.848C55.4375 67.238 55.1555 67.541 54.7955 67.757C54.4415 67.973 54.0455 68.081 53.6075 68.081C53.1875 68.081 52.8155 67.988 52.4915 67.802C52.1735 67.61 51.9305 67.373 51.7625 67.091V70.34H50.9435V63.068H51.7625V63.977ZM55.1105 65.516C55.1105 65.144 55.0355 64.82 54.8855 64.544C54.7355 64.268 54.5315 64.058 54.2735 63.914C54.0215 63.77 53.7425 63.698 53.4365 63.698C53.1365 63.698 52.8575 63.773 52.5995 63.923C52.3475 64.067 52.1435 64.28 51.9875 64.562C51.8375 64.838 51.7625 65.159 51.7625 65.525C51.7625 65.897 51.8375 66.224 51.9875 66.506C52.1435 66.782 52.3475 66.995 52.5995 67.145C52.8575 67.289 53.1365 67.361 53.4365 67.361C53.7425 67.361 54.0215 67.289 54.2735 67.145C54.5315 66.995 54.7355 66.782 54.8855 66.506C55.0355 66.224 55.1105 65.894 55.1105 65.516ZM58.7715 68.081C58.3935 68.081 58.0545 68.018 57.7545 67.892C57.4545 67.76 57.2175 67.58 57.0435 67.352C56.8695 67.118 56.7735 66.851 56.7555 66.551H57.6015C57.6255 66.797 57.7395 66.998 57.9435 67.154C58.1535 67.31 58.4265 67.388 58.7625 67.388C59.0745 67.388 59.3205 67.319 59.5005 67.181C59.6805 67.043 59.7705 66.869 59.7705 66.659C59.7705 66.443 59.6745 66.284 59.4825 66.182C59.2905 66.074 58.9935 65.969 58.5915 65.867C58.2255 65.771 57.9255 65.675 57.6915 65.579C57.4635 65.477 57.2655 65.33 57.0975 65.138C56.9355 64.94 56.8545 64.682 56.8545 64.364C56.8545 64.112 56.9295 63.881 57.0795 63.671C57.2295 63.461 57.4425 63.296 57.7185 63.176C57.9945 63.05 58.3095 62.987 58.6635 62.987C59.2095 62.987 59.6505 63.125 59.9865 63.401C60.3225 63.677 60.5025 64.055 60.5265 64.535H59.7075C59.6895 64.277 59.5845 64.07 59.3925 63.914C59.2065 63.758 58.9545 63.68 58.6365 63.68C58.3425 63.68 58.1085 63.743 57.9345 63.869C57.7605 63.995 57.6735 64.16 57.6735 64.364C57.6735 64.526 57.7245 64.661 57.8265 64.769C57.9345 64.871 58.0665 64.955 58.2225 65.021C58.3845 65.081 58.6065 65.15 58.8885 65.228C59.2425 65.324 59.5305 65.42 59.7525 65.516C59.9745 65.606 60.1635 65.744 60.3195 65.93C60.4815 66.116 60.5655 66.359 60.5715 66.659C60.5715 66.929 60.4965 67.172 60.3465 67.388C60.1965 67.604 59.9835 67.775 59.7075 67.901C59.4375 68.021 59.1255 68.081 58.7715 68.081Z" fill="#53589D"/>
<defs>
<linearGradient id="paint0_linear_294_57" x1="-41.4705" y1="100.065" x2="103.449" y2="33.2903" gradientUnits="userSpaceOnUse">
<stop stop-color="#4D55BC"/>
<stop offset="1" stop-color="#4D55BC" stop-opacity="0"/>
</linearGradient>
<linearGradient id="paint1_linear_294_57" x1="-49.1603" y1="104.308" x2="107.92" y2="31.9301" gradientUnits="userSpaceOnUse">
<stop stop-color="#4D55BC"/>
<stop offset="1" stop-color="#4D55BC" stop-opacity="0"/>
</linearGradient>
</defs>
</svg>
