<svg width="98" height="98" viewBox="0 0 98 98" fill="none" xmlns="http://www.w3.org/2000/svg">
<circle cx="49.0129" cy="49.5" r="30.5968" stroke="url(#paint0_linear_294_50)" stroke-width="8"/>
<circle cx="48.9161" cy="49.5" r="43" stroke="url(#paint1_linear_294_50)" stroke-width="11"/>
<path d="M6.14679 50.0005C5.17805 44.0918 6.98933 36.7287 10.4506 30C12.7047 25.6178 18.9141 15.4001 31.4999 9.60184C38.8386 6.22091 62.5 1 81.9999 21.5" stroke="#4D55BC" stroke-width="11" stroke-linecap="round"/>
<path d="M38.91 30.727V34.696C38.91 35.254 39.045 35.668 39.315 35.938C39.591 36.208 39.972 36.343 40.458 36.343C40.938 36.343 41.313 36.208 41.583 35.938C41.859 35.668 41.997 35.254 41.997 34.696V30.727H42.816V34.687C42.816 35.209 42.711 35.65 42.501 36.01C42.291 36.364 42.006 36.628 41.646 36.802C41.292 36.976 40.893 37.063 40.449 37.063C40.005 37.063 39.603 36.976 39.243 36.802C38.889 36.628 38.607 36.364 38.397 36.01C38.193 35.65 38.091 35.209 38.091 34.687V30.727H38.91ZM45.0013 32.977C45.1633 32.695 45.4033 32.461 45.7213 32.275C46.0453 32.083 46.4203 31.987 46.8463 31.987C47.2843 31.987 47.6803 32.092 48.0343 32.302C48.3943 32.512 48.6763 32.809 48.8803 33.193C49.0843 33.571 49.1863 34.012 49.1863 34.516C49.1863 35.014 49.0843 35.458 48.8803 35.848C48.6763 36.238 48.3943 36.541 48.0343 36.757C47.6803 36.973 47.2843 37.081 46.8463 37.081C46.4263 37.081 46.0543 36.988 45.7303 36.802C45.4123 36.61 45.1693 36.373 45.0013 36.091V39.34H44.1823V32.068H45.0013V32.977ZM48.3493 34.516C48.3493 34.144 48.2743 33.82 48.1243 33.544C47.9743 33.268 47.7703 33.058 47.5123 32.914C47.2603 32.77 46.9813 32.698 46.6753 32.698C46.3753 32.698 46.0963 32.773 45.8383 32.923C45.5863 33.067 45.3823 33.28 45.2263 33.562C45.0763 33.838 45.0013 34.159 45.0013 34.525C45.0013 34.897 45.0763 35.224 45.2263 35.506C45.3823 35.782 45.5863 35.995 45.8383 36.145C46.0963 36.289 46.3753 36.361 46.6753 36.361C46.9813 36.361 47.2603 36.289 47.5123 36.145C47.7703 35.995 47.9743 35.782 48.1243 35.506C48.2743 35.224 48.3493 34.894 48.3493 34.516ZM53.6627 32.743V35.65C53.6627 35.89 53.7137 36.061 53.8157 36.163C53.9177 36.259 54.0947 36.307 54.3467 36.307H54.9497V37H54.2117C53.7557 37 53.4137 36.895 53.1857 36.685C52.9577 36.475 52.8437 36.13 52.8437 35.65V32.743H52.2047V32.068H52.8437V30.826H53.6627V32.068H54.9497V32.743H53.6627ZM58.093 37.081C57.631 37.081 57.211 36.976 56.833 36.766C56.461 36.556 56.167 36.259 55.951 35.875C55.741 35.485 55.636 35.035 55.636 34.525C55.636 34.021 55.744 33.577 55.96 33.193C56.182 32.803 56.482 32.506 56.86 32.302C57.238 32.092 57.661 31.987 58.129 31.987C58.597 31.987 59.02 32.092 59.398 32.302C59.776 32.506 60.073 32.8 60.289 33.184C60.511 33.568 60.622 34.015 60.622 34.525C60.622 35.035 60.508 35.485 60.28 35.875C60.058 36.259 59.755 36.556 59.371 36.766C58.987 36.976 58.561 37.081 58.093 37.081ZM58.093 36.361C58.387 36.361 58.663 36.292 58.921 36.154C59.179 36.016 59.386 35.809 59.542 35.533C59.704 35.257 59.785 34.921 59.785 34.525C59.785 34.129 59.707 33.793 59.551 33.517C59.395 33.241 59.191 33.037 58.939 32.905C58.687 32.767 58.414 32.698 58.12 32.698C57.82 32.698 57.544 32.767 57.292 32.905C57.046 33.037 56.848 33.241 56.698 33.517C56.548 33.793 56.473 34.129 56.473 34.525C56.473 34.927 56.545 35.266 56.689 35.542C56.839 35.818 57.037 36.025 57.283 36.163C57.529 36.295 57.799 36.361 58.093 36.361Z" fill="#53589D"/>
<path d="M39.2801 47.766C39.3281 46.41 39.7481 45.372 40.5401 44.652C41.3321 43.92 42.4361 43.554 43.8521 43.554C44.7761 43.554 45.5621 43.716 46.2101 44.04C46.8701 44.352 47.3681 44.784 47.7041 45.336C48.0401 45.876 48.2081 46.488 48.2081 47.172C48.2081 47.988 48.0101 48.642 47.6141 49.134C47.2181 49.614 46.7681 49.938 46.2641 50.106V50.178C47.7161 50.718 48.4421 51.75 48.4421 53.274C48.4421 54.03 48.2681 54.696 47.9201 55.272C47.5721 55.848 47.0681 56.298 46.4081 56.622C45.7481 56.946 44.9621 57.108 44.0501 57.108C42.5501 57.108 41.3621 56.748 40.4861 56.028C39.6221 55.296 39.1721 54.18 39.1361 52.68H42.5741C42.5501 53.16 42.6521 53.532 42.8801 53.796C43.1081 54.06 43.4501 54.192 43.9061 54.192C44.2541 54.192 44.5241 54.084 44.7161 53.868C44.9201 53.652 45.0221 53.364 45.0221 53.004C45.0221 52.548 44.8721 52.212 44.5721 51.996C44.2841 51.78 43.8101 51.672 43.1501 51.672H42.5201V48.81H43.1321C43.5881 48.822 43.9721 48.75 44.2841 48.594C44.6081 48.426 44.7701 48.096 44.7701 47.604C44.7701 47.232 44.6801 46.956 44.5001 46.776C44.3201 46.584 44.0741 46.488 43.7621 46.488C43.4141 46.488 43.1561 46.614 42.9881 46.866C42.8321 47.106 42.7421 47.406 42.7181 47.766H39.2801ZM50.1045 50.232C50.1045 48.168 50.5245 46.542 51.3645 45.354C52.2045 44.166 53.5245 43.572 55.3245 43.572C57.1245 43.572 58.4445 44.166 59.2845 45.354C60.1365 46.542 60.5625 48.168 60.5625 50.232C60.5625 52.32 60.1425 53.958 59.3025 55.146C58.4625 56.334 57.1365 56.928 55.3245 56.928C53.5125 56.928 52.1865 56.334 51.3465 55.146C50.5185 53.958 50.1045 52.32 50.1045 50.232ZM57.0705 50.232C57.0705 49.152 56.9565 48.33 56.7285 47.766C56.5005 47.19 56.0325 46.902 55.3245 46.902C54.6165 46.902 54.1485 47.19 53.9205 47.766C53.6925 48.33 53.5785 49.152 53.5785 50.232C53.5785 51.336 53.6865 52.176 53.9025 52.752C54.1305 53.316 54.6045 53.598 55.3245 53.598C56.0445 53.598 56.5125 53.316 56.7285 52.752C56.9565 52.176 57.0705 51.336 57.0705 50.232Z" fill="#53589D"/>
<path d="M43.472 61.772V68H42.653V63.356L40.583 68H40.007L37.928 63.347V68H37.109V61.772H37.991L40.295 66.92L42.599 61.772H43.472ZM45.68 63.986C45.848 63.692 46.094 63.452 46.418 63.266C46.742 63.08 47.111 62.987 47.525 62.987C47.969 62.987 48.368 63.092 48.722 63.302C49.076 63.512 49.355 63.809 49.559 64.193C49.763 64.571 49.865 65.012 49.865 65.516C49.865 66.014 49.763 66.458 49.559 66.848C49.355 67.238 49.073 67.541 48.713 67.757C48.359 67.973 47.963 68.081 47.525 68.081C47.099 68.081 46.724 67.988 46.4 67.802C46.082 67.616 45.842 67.379 45.68 67.091V68H44.861V61.34H45.68V63.986ZM49.028 65.516C49.028 65.144 48.953 64.82 48.803 64.544C48.653 64.268 48.449 64.058 48.191 63.914C47.939 63.77 47.66 63.698 47.354 63.698C47.054 63.698 46.775 63.773 46.517 63.923C46.265 64.067 46.061 64.28 45.905 64.562C45.755 64.838 45.68 65.159 45.68 65.525C45.68 65.897 45.755 66.224 45.905 66.506C46.061 66.782 46.265 66.995 46.517 67.145C46.775 67.289 47.054 67.361 47.354 67.361C47.66 67.361 47.939 67.289 48.191 67.145C48.449 66.995 48.653 66.782 48.803 66.506C48.953 66.224 49.028 65.894 49.028 65.516ZM51.762 63.977C51.924 63.695 52.164 63.461 52.482 63.275C52.806 63.083 53.181 62.987 53.607 62.987C54.045 62.987 54.441 63.092 54.795 63.302C55.155 63.512 55.437 63.809 55.641 64.193C55.845 64.571 55.947 65.012 55.947 65.516C55.947 66.014 55.845 66.458 55.641 66.848C55.437 67.238 55.155 67.541 54.795 67.757C54.441 67.973 54.045 68.081 53.607 68.081C53.187 68.081 52.815 67.988 52.491 67.802C52.173 67.61 51.93 67.373 51.762 67.091V70.34H50.943V63.068H51.762V63.977ZM55.11 65.516C55.11 65.144 55.035 64.82 54.885 64.544C54.735 64.268 54.531 64.058 54.273 63.914C54.021 63.77 53.742 63.698 53.436 63.698C53.136 63.698 52.857 63.773 52.599 63.923C52.347 64.067 52.143 64.28 51.987 64.562C51.837 64.838 51.762 65.159 51.762 65.525C51.762 65.897 51.837 66.224 51.987 66.506C52.143 66.782 52.347 66.995 52.599 67.145C52.857 67.289 53.136 67.361 53.436 67.361C53.742 67.361 54.021 67.289 54.273 67.145C54.531 66.995 54.735 66.782 54.885 66.506C55.035 66.224 55.11 65.894 55.11 65.516ZM58.771 68.081C58.393 68.081 58.054 68.018 57.754 67.892C57.454 67.76 57.217 67.58 57.043 67.352C56.869 67.118 56.773 66.851 56.755 66.551H57.601C57.625 66.797 57.739 66.998 57.943 67.154C58.153 67.31 58.426 67.388 58.762 67.388C59.074 67.388 59.32 67.319 59.5 67.181C59.68 67.043 59.77 66.869 59.77 66.659C59.77 66.443 59.674 66.284 59.482 66.182C59.29 66.074 58.993 65.969 58.591 65.867C58.225 65.771 57.925 65.675 57.691 65.579C57.463 65.477 57.265 65.33 57.097 65.138C56.935 64.94 56.854 64.682 56.854 64.364C56.854 64.112 56.929 63.881 57.079 63.671C57.229 63.461 57.442 63.296 57.718 63.176C57.994 63.05 58.309 62.987 58.663 62.987C59.209 62.987 59.65 63.125 59.986 63.401C60.322 63.677 60.502 64.055 60.526 64.535H59.707C59.689 64.277 59.584 64.07 59.392 63.914C59.206 63.758 58.954 63.68 58.636 63.68C58.342 63.68 58.108 63.743 57.934 63.869C57.76 63.995 57.673 64.16 57.673 64.364C57.673 64.526 57.724 64.661 57.826 64.769C57.934 64.871 58.066 64.955 58.222 65.021C58.384 65.081 58.606 65.15 58.888 65.228C59.242 65.324 59.53 65.42 59.752 65.516C59.974 65.606 60.163 65.744 60.319 65.93C60.481 66.116 60.565 66.359 60.571 66.659C60.571 66.929 60.496 67.172 60.346 67.388C60.196 67.604 59.983 67.775 59.707 67.901C59.437 68.021 59.125 68.081 58.771 68.081Z" fill="#53589D"/>
<defs>
<linearGradient id="paint0_linear_294_50" x1="-41.471" y1="100.065" x2="103.448" y2="33.2903" gradientUnits="userSpaceOnUse">
<stop stop-color="#4D55BC"/>
<stop offset="1" stop-color="#4D55BC" stop-opacity="0"/>
</linearGradient>
<linearGradient id="paint1_linear_294_50" x1="-49.1608" y1="104.308" x2="107.92" y2="31.9301" gradientUnits="userSpaceOnUse">
<stop stop-color="#4D55BC"/>
<stop offset="1" stop-color="#4D55BC" stop-opacity="0"/>
</linearGradient>
</defs>
</svg>
